{
	"asset":{
		"generator":"Khronos glTF Blender I/O v3.6.27",
		"version":"2.0"
	},
	"scene":0,
	"scenes":[
		{
			"name":"Scene",
			"nodes":[
				0
			]
		}
	],
	"nodes":[
		{
			"mesh":0,
			"name":"FCPX",
			"rotation":[
				0.7071068286895752,
				0,
				0,
				0.7071068286895752
			],
			"scale":[
				0.9366152286529541,
				0.9366152286529541,
				0.9366152286529541
			],
			"translation":[
				-2.5,
				-0.05210181698203087,
				0
			]
		}
	],
	"materials":[
		{
			"doubleSided":true,
			"name":"FCPX",
			"pbrMetallicRoughness":{
				"baseColorTexture":{
					"index":0
				},
				"metallicFactor":0,
				"roughnessFactor":0.21909083425998688
			}
		}
	],
	"meshes":[
		{
			"name":"Plane.002",
			"primitives":[
				{
					"attributes":{
						"POSITION":0,
						"NORMAL":1,
						"TEXCOORD_0":2
					},
					"indices":3,
					"material":0
				}
			]
		}
	],
	"textures":[
		{
			"sampler":0,
			"source":0
		}
	],
	"images":[
		{
			"bufferView":4,
			"mimeType":"image/png",
			"name":"fcpx_alb"
		}
	],
	"accessors":[
		{
			"bufferView":0,
			"componentType":5126,
			"count":1075,
			"max":[
				1.0000001192092896,
				0.15811851620674133,
				1.0000001192092896
			],
			"min":[
				-1.0000001192092896,
				-8.195638656616211e-07,
				-1.1146398782730103
			],
			"type":"VEC3"
		},
		{
			"bufferView":1,
			"componentType":5126,
			"count":1075,
			"type":"VEC3"
		},
		{
			"bufferView":2,
			"componentType":5126,
			"count":1075,
			"type":"VEC2"
		},
		{
			"bufferView":3,
			"componentType":5123,
			"count":3888,
			"type":"SCALAR"
		}
	],
	"bufferViews":[
		{
			"buffer":0,
			"byteLength":12900,
			"byteOffset":0,
			"target":34962
		},
		{
			"buffer":0,
			"byteLength":12900,
			"byteOffset":12900,
			"target":34962
		},
		{
			"buffer":0,
			"byteLength":8600,
			"byteOffset":25800,
			"target":34962
		},
		{
			"buffer":0,
			"byteLength":7776,
			"byteOffset":34400,
			"target":34963
		},
		{
			"buffer":0,
			"byteLength":179501,
			"byteOffset":42176
		}
	],
	"samplers":[
		{
			"magFilter":9729,
			"minFilter":9987
		}
	],
	"buffers":[
		{
			"byteLength":221680,
			"uri":"data:application/octet-stream;base64,"
		}
	]
}
