{
	"asset":{
		"generator":"Khronos glTF Blender I/O v3.6.27",
		"version":"2.0"
	},
	"extensionsUsed":[
		"KHR_materials_clearcoat"
	],
	"scene":0,
	"scenes":[
		{
			"name":"Scene",
			"nodes":[
				0
			]
		}
	],
	"nodes":[
		{
			"mesh":0,
			"name":"Resolve",
			"rotation":[
				0.7071068286895752,
				0,
				0,
				0.7071068286895752
			],
			"scale":[
				1.0412790775299072,
				1.0412790775299072,
				1.0412790775299072
			]
		}
	],
	"materials":[
		{
			"doubleSided":true,
			"extensions":{
				"KHR_materials_clearcoat":{
					"clearcoatFactor":1,
					"clearcoatRoughnessFactor":0
				}
			},
			"name":"DaVinciRainbow",
			"pbrMetallicRoughness":{
				"baseColorTexture":{
					"index":0
				},
				"metallicFactor":0
			}
		},
		{
			"doubleSided":true,
			"name":"DaVinciBase",
			"pbrMetallicRoughness":{
				"baseColorFactor":[
					0.010861081071197987,
					0.02305041067302227,
					0.0408417247235775,
					1
				],
				"metallicFactor":0,
				"roughnessFactor":0.7272727489471436
			}
		}
	],
	"meshes":[
		{
			"name":"Curve.002",
			"primitives":[
				{
					"attributes":{
						"POSITION":0,
						"NORMAL":1,
						"TEXCOORD_0":2
					},
					"indices":3,
					"material":0
				},
				{
					"attributes":{
						"POSITION":4,
						"NORMAL":5,
						"TEXCOORD_0":6
					},
					"indices":7,
					"material":1
				}
			]
		}
	],
	"textures":[
		{
			"sampler":0,
			"source":0
		}
	],
	"images":[
		{
			"bufferView":4,
			"mimeType":"image/png",
			"name":"DaVinci_Rainbow_alb"
		}
	],
	"accessors":[
		{
			"bufferView":0,
			"componentType":5126,
			"count":3236,
			"max":[
				0.952821671962738,
				0.10392141342163086,
				0.9526336789131165
			],
			"min":[
				-0.952821671962738,
				-0.06799999624490738,
				-0.9526336789131165
			],
			"type":"VEC3"
		},
		{
			"bufferView":1,
			"componentType":5126,
			"count":3236,
			"type":"VEC3"
		},
		{
			"bufferView":2,
			"componentType":5126,
			"count":3236,
			"type":"VEC2"
		},
		{
			"bufferView":3,
			"componentType":5123,
			"count":17298,
			"type":"SCALAR"
		},
		{
			"bufferView":5,
			"componentType":5126,
			"count":1546,
			"max":[
				0.8652653694152832,
				-5.178163178243267e-07,
				0.8651021122932434
			],
			"min":[
				-0.8652653694152832,
				-0.058052998036146164,
				-0.8651021122932434
			],
			"type":"VEC3"
		},
		{
			"bufferView":6,
			"componentType":5126,
			"count":1546,
			"type":"VEC3"
		},
		{
			"bufferView":7,
			"componentType":5126,
			"count":1546,
			"type":"VEC2"
		},
		{
			"bufferView":8,
			"componentType":5123,
			"count":7488,
			"type":"SCALAR"
		}
	],
	"bufferViews":[
		{
			"buffer":0,
			"byteLength":38832,
			"byteOffset":0,
			"target":34962
		},
		{
			"buffer":0,
			"byteLength":38832,
			"byteOffset":38832,
			"target":34962
		},
		{
			"buffer":0,
			"byteLength":25888,
			"byteOffset":77664,
			"target":34962
		},
		{
			"buffer":0,
			"byteLength":34596,
			"byteOffset":103552,
			"target":34963
		},
		{
			"buffer":0,
			"byteLength":1168880,
			"byteOffset":138148
		},
		{
			"buffer":0,
			"byteLength":18552,
			"byteOffset":1307028,
			"target":34962
		},
		{
			"buffer":0,
			"byteLength":18552,
			"byteOffset":1325580,
			"target":34962
		},
		{
			"buffer":0,
			"byteLength":12368,
			"byteOffset":1344132,
			"target":34962
		},
		{
			"buffer":0,
			"byteLength":14976,
			"byteOffset":1356500,
			"target":34963
		}
	],
	"samplers":[
		{
			"magFilter":9729,
			"minFilter":9987
		}
	],
	"buffers":[
		{
			"byteLength":1371476,
			"uri":"data:application/octet-stream;base64,"
		}
	]
}
